<svg id="visual" viewBox="0 0 2048 1080" width="2048" height="1080" xmlns="http://www.w3.org/2000/svg" xmlns:xlink="http://www.w3.org/1999/xlink" version="1.1"><rect x="0" y="0" width="2048" height="1080" fill="none"></rect><defs><linearGradient id="grad1_0" x1="47.3%" y1="100%" x2="100%" y2="0%"><stop offset="12.074074074074073%" stop-color="#0d47a1" stop-opacity="1"></stop><stop offset="87.92592592592592%" stop-color="#0d47a1" stop-opacity="1"></stop></linearGradient></defs><defs><linearGradient id="grad1_1" x1="47.3%" y1="100%" x2="100%" y2="0%"><stop offset="12.074074074074073%" stop-color="#0d47a1" stop-opacity="1"></stop><stop offset="87.92592592592592%" stop-color="#747fc1" stop-opacity="1"></stop></linearGradient></defs><defs><linearGradient id="grad1_2" x1="47.3%" y1="100%" x2="100%" y2="0%"><stop offset="12.074074074074073%" stop-color="#babde0" stop-opacity="1"></stop><stop offset="87.92592592592592%" stop-color="#747fc1" stop-opacity="1"></stop></linearGradient></defs><defs><linearGradient id="grad1_3" x1="47.3%" y1="100%" x2="100%" y2="0%"><stop offset="12.074074074074073%" stop-color="#babde0" stop-opacity="1"></stop><stop offset="87.92592592592592%" stop-color="#ffffff" stop-opacity="1"></stop></linearGradient></defs><defs><linearGradient id="grad2_0" x1="0%" y1="100%" x2="52.7%" y2="0%"><stop offset="12.074074074074073%" stop-color="#0d47a1" stop-opacity="1"></stop><stop offset="87.92592592592592%" stop-color="#0d47a1" stop-opacity="1"></stop></linearGradient></defs><defs><linearGradient id="grad2_1" x1="0%" y1="100%" x2="52.7%" y2="0%"><stop offset="12.074074074074073%" stop-color="#747fc1" stop-opacity="1"></stop><stop offset="87.92592592592592%" stop-color="#0d47a1" stop-opacity="1"></stop></linearGradient></defs><defs><linearGradient id="grad2_2" x1="0%" y1="100%" x2="52.7%" y2="0%"><stop offset="12.074074074074073%" stop-color="#747fc1" stop-opacity="1"></stop><stop offset="87.92592592592592%" stop-color="#babde0" stop-opacity="1"></stop></linearGradient></defs><defs><linearGradient id="grad2_3" x1="0%" y1="100%" x2="52.7%" y2="0%"><stop offset="12.074074074074073%" stop-color="#ffffff" stop-opacity="1"></stop><stop offset="87.92592592592592%" stop-color="#babde0" stop-opacity="1"></stop></linearGradient></defs><g transform="translate(2048, 1080)"><path d="M-918 0C-898.9 -59.7 -879.9 -119.4 -850.3 -169.1C-820.8 -218.9 -780.9 -258.8 -774.2 -320.7C-767.5 -382.6 -794.1 -466.5 -763.3 -510C-732.4 -553.5 -644.2 -556.6 -596.1 -596.1C-548 -635.6 -540.1 -711.4 -500 -748.3C-459.9 -785.2 -387.5 -783.3 -327.2 -789.9C-266.9 -796.6 -218.5 -811.9 -166 -834.6C-113.5 -857.4 -56.7 -887.7 0 -918L0 0Z" fill="#ddddf0"></path><path d="M-688.5 0C-674.2 -44.8 -659.9 -89.5 -637.8 -126.9C-615.6 -164.2 -585.7 -194.1 -580.7 -240.5C-575.7 -286.9 -595.6 -349.9 -572.5 -382.5C-549.3 -415.1 -483.1 -417.5 -447.1 -447.1C-411 -476.7 -405.1 -533.5 -375 -561.2C-344.9 -588.9 -290.6 -587.4 -245.4 -592.4C-200.1 -597.4 -163.9 -608.9 -124.5 -626C-85.1 -643.1 -42.6 -665.8 0 -688.5L0 0Z" fill="#989dd0"></path><path d="M-459 0C-449.5 -29.8 -439.9 -59.7 -425.2 -84.6C-410.4 -109.5 -390.4 -129.4 -387.1 -160.3C-383.8 -191.3 -397.1 -233.3 -381.6 -255C-366.2 -276.8 -322.1 -278.3 -298 -298C-274 -317.8 -270.1 -355.7 -250 -374.2C-229.9 -392.6 -193.8 -391.6 -163.6 -395C-133.4 -398.3 -109.3 -405.9 -83 -417.3C-56.7 -428.7 -28.4 -443.9 0 -459L0 0Z" fill="#4d62b1"></path><path d="M-229.5 0C-224.7 -14.9 -220 -29.8 -212.6 -42.3C-205.2 -54.7 -195.2 -64.7 -193.6 -80.2C-191.9 -95.6 -198.5 -116.6 -190.8 -127.5C-183.1 -138.4 -161 -139.2 -149 -149C-137 -158.9 -135 -177.8 -125 -187.1C-115 -196.3 -96.9 -195.8 -81.8 -197.5C-66.7 -199.1 -54.6 -203 -41.5 -208.7C-28.4 -214.4 -14.2 -221.9 0 -229.5L0 0Z" fill="#0d47a1"></path></g><g transform="translate(0, 0)"><path d="M918 0C857.2 47.7 796.4 95.4 795.4 158.2C794.4 221.1 853.2 299.1 832.4 344.8C811.6 390.5 711.3 404 663.5 443.3C615.8 482.7 620.6 547.8 601.7 601.7C582.9 655.7 540.2 698.4 496.1 742.5C452.1 786.6 406.6 831.9 351.3 848.1C296 864.3 230.9 851.4 170.7 858.2C110.5 865 55.3 891.5 0 918L0 0Z" fill="#ddddf0"></path><path d="M688.5 0C642.9 35.8 597.3 71.5 596.6 118.7C595.8 165.8 639.9 224.3 624.3 258.6C608.7 292.9 533.4 303 497.6 332.5C461.8 362 465.5 410.9 451.3 451.3C437.1 491.8 405.1 523.8 372.1 556.9C339 589.9 304.9 623.9 263.5 636.1C222 648.2 173.2 638.5 128 643.6C82.9 648.7 41.4 668.6 0 688.5L0 0Z" fill="#989dd0"></path><path d="M459 0C428.6 23.8 398.2 47.7 397.7 79.1C397.2 110.5 426.6 149.5 416.2 172.4C405.8 195.3 355.6 202 331.8 221.7C307.9 241.3 310.3 273.9 300.9 300.9C291.4 327.8 270.1 349.2 248.1 371.3C226 393.3 203.3 416 175.7 424.1C148 432.2 115.4 425.7 85.4 429.1C55.3 432.5 27.6 445.7 0 459L0 0Z" fill="#4d62b1"></path><path d="M229.5 0C214.3 11.9 199.1 23.8 198.9 39.6C198.6 55.3 213.3 74.8 208.1 86.2C202.9 97.6 177.8 101 165.9 110.8C153.9 120.7 155.2 137 150.4 150.4C145.7 163.9 135 174.6 124 185.6C113 196.6 101.6 208 87.8 212C74 216.1 57.7 212.8 42.7 214.5C27.6 216.2 13.8 222.9 0 229.5L0 0Z" fill="#0d47a1"></path></g></svg>